# This file uses centimeters as units for non-parametric coordinates.

mtllib m_Rock1.mtl
g default
v -1.298370 0.000001 1.429246
v -0.432794 0.000001 1.351045
v 0.345831 -0.021054 1.288297
v 1.045031 -0.017617 1.289941
v -1.238618 1.509789 0.447104
v -0.527769 0.653321 1.330473
v 0.203562 0.394705 1.112841
v 0.823169 0.412401 1.081593
v -0.300240 1.710505 0.956559
v 0.241267 1.508461 1.117793
v 0.156113 0.842977 1.106446
v 0.786170 0.859724 1.050611
v -0.393217 2.237978 0.348203
v -1.042819 2.138627 0.303760
v 0.090748 2.166887 0.451474
v 0.482948 1.111837 0.575457
v -0.280857 2.069794 0.031528
v 0.061053 2.076495 0.114979
v 0.564579 2.046424 0.190917
v -0.160535 1.829093 -0.530476
v 0.264050 1.841831 -0.522417
v -0.960067 1.269831 -0.666948
v -0.282368 1.164986 -0.685649
v 0.228893 1.088008 -0.593505
v 0.833314 0.982924 -0.495172
v -1.199623 0.740645 -1.008738
v -0.402507 0.612175 -0.975548
v 0.331045 0.510198 -0.873068
v 1.032116 0.504256 -0.877266
v -1.298370 0.000001 -1.167491
v -0.431878 -0.011120 -1.238627
v 0.434142 -0.016408 -1.234041
v 1.286203 -0.007938 -1.283454
v -1.298369 0.000001 -0.173938
v 1.270010 -0.002589 -0.423118
v -1.298369 0.000001 0.691641
v 1.115315 0.000001 0.432790
v 0.780495 0.563172 -0.058797
v 0.496018 1.180159 0.191677
v -1.193605 0.805898 -0.110344
v -1.334966 0.837377 0.681711
v -1.008482 1.432516 -0.014478
vt 0.375000 0.000000
vt 0.458333 0.000000
vt 0.541667 0.000000
vt 0.625000 0.000000
vt 0.280474 0.172865
vt 0.458333 0.083333
vt 0.541667 0.083333
vt 0.623123 0.078206
vt 0.459831 0.248002
vt 0.545313 0.248765
vt 0.537903 0.150178
vt 0.637998 0.148581
vt 0.448094 0.338092
vt 0.370317 0.350879
vt 0.541667 0.333333
vt 0.599306 0.244386
vt 0.463015 0.408983
vt 0.530653 0.403444
vt 0.625000 0.416667
vt 0.458333 0.500000
vt 0.532768 0.499246
vt 0.375000 0.583333
vt 0.458333 0.583333
vt 0.541667 0.583333
vt 0.625000 0.583333
vt 0.375000 0.666667
vt 0.458333 0.666667
vt 0.541667 0.666667
vt 0.625000 0.666667
vt 0.375000 0.750000
vt 0.458333 0.750000
vt 0.541667 0.750000
vt 0.625000 0.750000
vt 0.875000 0.000000
vt 0.791667 0.000000
vt 0.708333 0.000000
vt 0.875000 0.083333
vt 0.791667 0.083333
vt 0.875000 0.166667
vt 0.791667 0.166667
vt 0.712404 0.167707
vt 0.864801 0.248386
vt 0.791667 0.250000
vt 0.125000 0.000000
vt 0.208333 0.000000
vt 0.291667 0.000000
vt 0.125000 0.083333
vt 0.208333 0.083333
vt 0.291667 0.083333
vt 0.125000 0.166667
vt 0.208333 0.166667
vt 0.115953 0.272786
vt 0.261703 0.254853
vn -0.230960 0.406095 0.884163
vn -0.080007 0.353079 0.932167
vn -0.203024 0.365640 0.908344
vn -0.321903 0.391758 0.861919
vn 0.111198 0.329071 0.937735
vn 0.147684 0.206921 0.967147
vn 0.013690 0.418075 0.908309
vn 0.036907 0.269639 0.962254
vn 0.300254 0.597066 0.743881
vn -0.280590 0.492361 0.823923
vn 0.195521 -0.002711 0.980696
vn 0.074256 0.025745 0.996907
vn 0.375846 0.770939 0.514191
vn 0.027152 0.975287 0.219266
vn 0.875087 0.482544 0.037068
vn 0.857117 0.502949 0.111318
vn -0.605769 0.758874 0.239070
vn -0.253730 0.777206 -0.575823
vn 0.249057 0.967411 -0.045680
vn 0.457923 0.761356 0.458960
vn 0.042211 0.935449 -0.350933
vn -0.114768 0.584327 -0.803362
vn 0.014424 0.454677 -0.890540
vn -0.061470 0.536229 -0.841831
vn 0.128727 0.130525 -0.983053
vn 0.155151 0.339685 -0.927654
vn 0.122334 0.466237 -0.876160
vn 0.082232 0.417317 -0.905033
vn 0.036400 0.372974 -0.927128
vn 0.086588 0.517586 -0.851239
vn 0.017448 0.575690 -0.817482
vn 0.043606 0.382440 -0.922951
vn 0.002977 0.295210 -0.955428
vn 0.025885 0.540028 -0.841249
vn -0.028875 0.587376 -0.808799
vn 0.860076 0.506055 0.064640
vn 0.854609 0.505927 0.116966
vn 0.877591 0.451463 0.161289
vn 0.891456 0.444937 0.085655
vn 0.870697 0.491758 0.007764
vn 0.877069 0.480310 0.007182
vn 0.869153 0.487815 0.081294
vn 0.928860 0.284176 0.237619
vn 0.953580 0.247896 0.170975
vn 0.949407 0.314040 -0.002224
vn 0.880943 0.468481 -0.066821
vn 0.959181 0.277502 -0.054452
vn 0.966388 0.252338 -0.049185
vn -0.991427 0.130657 -0.001352
vn -0.995026 0.091223 -0.040018
vn -0.981164 0.166829 -0.097393
vn -0.981412 0.190787 -0.020757
vn -0.998130 0.016511 -0.058849
vn -0.992865 0.108730 -0.048952
vn -0.999399 -0.016435 0.030515
vn -0.896271 0.410530 0.167821
vn -0.782711 0.448906 -0.431100
vn -0.838751 0.477852 -0.261065
vn -0.366841 0.529751 0.764717
vn -0.366841 0.529751 0.764717
s 1
g pCube2
usemtl blinn1SG
f 1/1/1 2/2/2 6/6/3 5/5/4
f 2/2/2 3/3/5 7/7/6 6/6/3
f 3/3/5 4/4/7 8/8/8 7/7/6
f 5/5/4 6/6/3 10/10/9 9/9/10
f 7/7/6 11/11/11 6/6/3
f 6/6/3 11/11/11 10/10/9
f 7/7/6 8/8/8 12/12/12 11/11/11
f 11/11/11 12/12/12 10/10/9
f 9/9/10 10/10/9 15/15/13 13/13/14
f 10/10/9 12/12/15 16/16/16 15/15/13
f 14/14/17 13/13/14 17/17/18
f 13/13/14 15/15/13 18/18/19 17/17/18
f 15/15/13 16/16/16 19/19/20 18/18/19
f 17/17/18 18/18/19 21/21/21 20/20/22
f 18/18/19 19/19/20 21/21/21
f 17/17/18 20/20/22 23/23/23 22/22/24
f 20/20/22 21/21/25 24/24/26 23/23/23
f 21/21/25 25/25/27 24/24/26
f 22/22/24 23/23/23 27/27/28 26/26/29
f 23/23/23 24/24/26 28/28/30 27/27/28
f 24/24/26 25/25/27 29/29/31 28/28/30
f 26/26/29 27/27/28 31/31/32 30/30/33
f 27/27/28 28/28/30 32/32/34 31/31/32
f 28/28/30 29/29/31 33/33/35 32/32/34
s 2
f 35/35/36 33/34/37 29/37/38 38/38/39
f 37/36/40 35/35/36 38/38/39 12/12/41
f 4/4/42 37/36/40 8/8/43
f 8/8/43 37/36/40 12/12/41
f 38/38/39 29/37/38 25/39/44 39/40/45
f 12/12/41 38/38/39 39/40/45 16/41/46
f 39/40/45 25/39/44 21/42/47 19/43/48
f 16/41/46 39/40/45 19/43/48
s 1
f 30/44/49 34/45/50 40/48/51 26/47/52
f 34/45/50 36/46/53 41/49/54 40/48/51
f 36/46/53 1/1/55 41/49/54
f 41/49/54 1/1/55 5/5/56
f 26/47/52 40/48/51 42/51/57 22/50/58
f 40/48/51 41/49/54 5/5/56 42/51/57
f 22/50/58 42/51/57 14/53/17 17/52/18
f 42/51/57 5/5/56 14/53/17
f 5/5/56 9/9/59 13/13/60 14/53/17
g default
v -1.298370 0.000001 1.429246
v -0.432794 0.000001 1.351045
v 0.345831 -0.021054 1.288297
v 1.045031 -0.017617 1.289941
v -1.238618 1.509789 0.447104
v -0.527769 0.653321 1.330473
v 0.203562 0.394705 1.112841
v 0.823169 0.412401 1.081593
v -0.300240 1.710505 0.956559
v 0.241267 1.508461 1.117793
v 0.156113 0.842977 1.106446
v 0.786170 0.859724 1.050611
v -0.393217 2.237978 0.348203
v -1.042819 2.138627 0.303760
v 0.090748 2.166887 0.451474
v 0.482948 1.111837 0.575457
v -0.280857 2.069794 0.031528
v 0.061053 2.076495 0.114979
v 0.564579 2.046424 0.190917
v -0.160535 1.829093 -0.530476
v 0.264050 1.841831 -0.522417
v -0.960067 1.269831 -0.666948
v -0.282368 1.164986 -0.685649
v 0.228893 1.088008 -0.593505
v 0.833314 0.982924 -0.495172
v -1.199623 0.740645 -1.008738
v -0.402507 0.612175 -0.975548
v 0.331045 0.510198 -0.873068
v 1.032116 0.504256 -0.877266
v -1.298370 0.000001 -1.167491
v -0.431878 -0.011120 -1.238627
v 0.434142 -0.016408 -1.234041
v 1.286203 -0.007938 -1.283454
v -1.298369 0.000001 -0.173938
v 1.270010 -0.002589 -0.423118
v -1.298369 0.000001 0.691641
v 1.115315 0.000001 0.432790
v 0.780495 0.563172 -0.058797
v 0.496018 1.180159 0.191677
v -1.193605 0.805898 -0.110344
v -1.334966 0.837377 0.681711
v -1.008482 1.432516 -0.014478
vt 0.375000 0.000000
vt 0.458333 0.000000
vt 0.541667 0.000000
vt 0.625000 0.000000
vt 0.280474 0.172865
vt 0.458333 0.083333
vt 0.541667 0.083333
vt 0.623123 0.078206
vt 0.459831 0.248002
vt 0.545313 0.248765
vt 0.537903 0.150178
vt 0.637998 0.148581
vt 0.448094 0.338092
vt 0.370317 0.350879
vt 0.541667 0.333333
vt 0.599306 0.244386
vt 0.463015 0.408983
vt 0.530653 0.403444
vt 0.625000 0.416667
vt 0.458333 0.500000
vt 0.532768 0.499246
vt 0.375000 0.583333
vt 0.458333 0.583333
vt 0.541667 0.583333
vt 0.625000 0.583333
vt 0.375000 0.666667
vt 0.458333 0.666667
vt 0.541667 0.666667
vt 0.625000 0.666667
vt 0.375000 0.750000
vt 0.458333 0.750000
vt 0.541667 0.750000
vt 0.625000 0.750000
vt 0.875000 0.000000
vt 0.791667 0.000000
vt 0.708333 0.000000
vt 0.875000 0.083333
vt 0.791667 0.083333
vt 0.875000 0.166667
vt 0.791667 0.166667
vt 0.712404 0.167707
vt 0.864801 0.248386
vt 0.791667 0.250000
vt 0.125000 0.000000
vt 0.208333 0.000000
vt 0.291667 0.000000
vt 0.125000 0.083333
vt 0.208333 0.083333
vt 0.291667 0.083333
vt 0.125000 0.166667
vt 0.208333 0.166667
vt 0.115953 0.272786
vt 0.261703 0.254853
vn -0.230960 0.406095 0.884163
vn -0.080007 0.353079 0.932167
vn -0.177158 0.348914 0.920258
vn -0.321903 0.391758 0.861919
vn 0.111198 0.329071 0.937735
vn 0.170879 0.174752 0.969671
vn 0.013690 0.418075 0.908309
vn 0.036907 0.269639 0.962254
vn 0.302537 0.576183 0.759266
vn -0.280590 0.492361 0.823923
vn 0.225354 -0.002936 0.974272
vn 0.074256 0.025745 0.996907
vn 0.375846 0.770939 0.514191
vn 0.027152 0.975287 0.219266
vn 0.875087 0.482544 0.037068
vn 0.857117 0.502949 0.111318
vn -0.605769 0.758874 0.239070
vn -0.253730 0.777206 -0.575823
vn 0.249057 0.967411 -0.045680
vn 0.457923 0.761356 0.458960
vn 0.042211 0.935449 -0.350933
vn -0.114768 0.584327 -0.803362
vn 0.014424 0.454677 -0.890540
vn -0.061470 0.536229 -0.841831
vn 0.128727 0.130525 -0.983053
vn 0.155151 0.339685 -0.927654
vn 0.122334 0.466237 -0.876160
vn 0.082232 0.417317 -0.905033
vn 0.036400 0.372974 -0.927128
vn 0.086588 0.517586 -0.851239
vn 0.017448 0.575690 -0.817482
vn 0.043606 0.382440 -0.922951
vn 0.002977 0.295210 -0.955428
vn 0.025885 0.540028 -0.841249
vn -0.028875 0.587376 -0.808799
vn 0.860076 0.506055 0.064640
vn 0.854609 0.505927 0.116966
vn 0.877591 0.451463 0.161289
vn 0.891456 0.444937 0.085655
vn 0.879466 0.475136 0.028028
vn 0.876311 0.481448 0.016909
vn 0.921759 0.328269 0.206395
vn 0.921759 0.328269 0.206395
vn 0.953580 0.247896 0.170975
vn 0.949407 0.314040 -0.002224
vn 0.880943 0.468481 -0.066821
vn 0.959181 0.277502 -0.054452
vn 0.966388 0.252338 -0.049185
vn -0.991427 0.130657 -0.001352
vn -0.995026 0.091223 -0.040018
vn -0.981164 0.166829 -0.097393
vn -0.981412 0.190787 -0.020757
vn -0.998747 0.049838 -0.004489
vn -0.996462 0.075491 -0.036946
vn -0.991921 0.057566 0.113044
vn -0.907637 0.388201 0.159673
vn -0.782711 0.448906 -0.431100
vn -0.838751 0.477852 -0.261065
vn -0.366841 0.529751 0.764717
vn -0.366841 0.529751 0.764717
s 1
g pCube1
usemtl initialShadingGroup
f 43/54/61 44/55/62 48/59/63 47/58/64
f 44/55/62 45/56/65 49/60/66 48/59/63
f 45/56/65 46/57/67 50/61/68 49/60/66
f 47/58/64 48/59/63 52/63/69 51/62/70
f 48/59/63 49/60/66 53/64/71 52/63/69
f 49/60/66 50/61/68 54/65/72 53/64/71
f 53/64/71 54/65/72 52/63/69
f 51/62/70 52/63/69 57/68/73 55/66/74
f 52/63/69 54/65/75 58/69/76 57/68/73
f 56/67/77 55/66/74 59/70/78
f 55/66/74 57/68/73 60/71/79 59/70/78
f 57/68/73 58/69/76 61/72/80 60/71/79
f 59/70/78 60/71/79 63/74/81 62/73/82
f 60/71/79 61/72/80 63/74/81
f 59/70/78 62/73/82 65/76/83 64/75/84
f 62/73/82 63/74/85 66/77/86 65/76/83
f 63/74/85 67/78/87 66/77/86
f 64/75/84 65/76/83 69/80/88 68/79/89
f 65/76/83 66/77/86 70/81/90 69/80/88
f 66/77/86 67/78/87 71/82/91 70/81/90
f 68/79/89 69/80/88 73/84/92 72/83/93
f 69/80/88 70/81/90 74/85/94 73/84/92
f 70/81/90 71/82/91 75/86/95 74/85/94
s 2
f 77/88/96 75/87/97 71/90/98 80/91/99
f 79/89/100 77/88/96 80/91/99 54/65/101
f 46/57/102 79/89/100 54/65/101 50/61/103
f 80/91/99 71/90/98 67/92/104 81/93/105
f 54/65/101 80/91/99 81/93/105 58/94/106
f 81/93/105 67/92/104 63/95/107 61/96/108
f 58/94/106 81/93/105 61/96/108
s 1
f 72/97/109 76/98/110 82/101/111 68/100/112
f 76/98/110 78/99/113 83/102/114 82/101/111
f 78/99/113 43/54/115 47/58/116 83/102/114
f 68/100/112 82/101/111 84/104/117 64/103/118
f 82/101/111 83/102/114 47/58/116 84/104/117
f 64/103/118 84/104/117 56/106/77 59/105/78
f 84/104/117 47/58/116 56/106/77
f 47/58/116 51/62/119 55/66/120 56/106/77
