# This file uses meters as units for non-parametric coordinates.

mtllib m_Rock2.mtl
g default
v -394.252960 45.685730 386.072113
v -206.424454 44.607166 388.735046
v 116.643753 21.416698 364.293488
v 460.448975 61.417099 405.154633
v -420.573914 257.828033 459.125061
v -152.970505 271.210999 449.576141
v 112.046982 246.771240 357.139221
v 428.749207 267.306305 338.290283
v -461.328522 489.137604 521.572754
v -170.962082 534.686462 557.712036
v 108.542488 530.088928 467.064941
v 363.838196 473.131104 318.861633
v -456.222595 737.442993 471.598175
v -186.550613 858.960693 452.682617
v 87.401718 875.700745 391.962738
v 303.986328 813.305420 311.494934
v -493.959534 858.067383 204.043365
v -204.900757 1109.212524 114.552353
v 159.938950 1215.580688 96.592621
v 403.139587 900.832703 100.514267
v -534.495300 787.462463 -99.275276
v -174.153442 1181.218506 -177.349014
v 157.032135 1277.450684 -187.118683
v 450.247131 893.193787 -142.108826
v -430.698181 774.208740 -408.296448
v -136.724030 851.634033 -463.121033
v 138.089752 938.241455 -446.610870
v 372.791626 858.817505 -376.931061
v -464.442505 482.420593 -485.224731
v -126.313652 465.626099 -562.567505
v 124.633812 478.292572 -530.980957
v 440.168121 474.043457 -485.231384
v -399.899017 274.419342 -476.105713
v -82.087410 261.690674 -560.176758
v 163.689041 256.024750 -540.265564
v 427.732056 261.129700 -519.262146
v -382.824249 69.888474 -482.627563
v -36.398785 53.900898 -548.984924
v 182.818619 46.062805 -528.572754
v 427.091522 50.447323 -513.427795
v -423.686310 42.486679 -84.067467
v -90.813133 6.933804 -185.151154
v 168.513977 3.254192 -254.089783
v 452.784637 24.872860 -232.799042
v -419.532104 42.486679 262.236664
v -162.335846 14.350101 221.419769
v 203.436981 7.344082 98.345474
v 486.080963 38.820877 138.445740
v 507.742645 245.900055 -237.736374
v 506.312469 254.091080 88.966072
v 530.102295 492.869080 -201.460999
v 430.685669 494.845886 102.107666
v -485.367310 261.744385 -36.170212
v -458.708160 255.466431 323.477539
v -594.170288 492.474487 -22.764536
v -510.780029 496.482422 368.300293
vt 0.047954 0.061634
vt 0.659433 0.839603
vt 0.647003 0.687327
vt 0.942235 0.092660
vt 0.128102 0.038011
vt 0.743657 0.823405
vt 0.729344 0.686913
vt 0.869521 0.123901
vt 0.219451 0.023575
vt 0.845289 0.843276
vt 0.838420 0.707124
vt 0.790107 0.130943
vt 0.313226 0.057143
vt 0.439072 0.056262
vt 0.561596 0.080155
vt 0.655749 0.140723
vt 0.325480 0.173685
vt 0.438832 0.222086
vt 0.549254 0.248279
vt 0.663648 0.244222
vt 0.288073 0.300599
vt 0.444617 0.345652
vt 0.538281 0.347915
vt 0.677241 0.351915
vt 0.298502 0.440972
vt 0.059477 0.807625
vt 0.018430 0.677211
vt 0.660787 0.456600
vt 0.184241 0.461498
vt 0.201590 0.796952
vt 0.187153 0.677353
vt 0.811989 0.490035
vt 0.104952 0.451437
vt 0.272755 0.773800
vt 0.266143 0.656245
vt 0.890123 0.499513
vt 0.032113 0.447474
vt 0.340981 0.748797
vt 0.340653 0.646561
vt 0.965455 0.491502
vt 0.028979 0.271407
vt 0.461839 0.776014
vt 0.434879 0.658591
vt 0.972380 0.369868
vt 0.042487 0.116212
vt 0.601228 0.813531
vt 0.554403 0.647269
vt 0.957718 0.206383
vt 0.892699 0.375797
vt 0.884130 0.234276
vt 0.807766 0.365896
vt 0.796444 0.226461
vt 0.108586 0.256866
vt 0.121904 0.098195
vt 0.192966 0.257008
vt 0.213101 0.089959
vt 0.660913 0.927192
vt 0.743002 0.952281
vt 0.655228 0.526116
vt 0.733657 0.534801
vt 0.831935 0.978897
vt 0.810430 0.567935
vt 0.967237 0.845715
vt 0.927315 0.979517
vt 0.965764 0.708438
vt 0.937896 0.595284
vt 0.419432 0.502777
vt 0.550985 0.506498
vt 0.093751 0.952029
vt 0.204377 0.961140
vt 0.033828 0.557459
vt 0.176756 0.525520
vt 0.278940 0.931038
vt 0.255109 0.530018
vt 0.357773 0.912251
vt 0.336485 0.533112
vt 0.500539 0.928068
vt 0.437877 0.530548
vt 0.618865 0.930420
vt 0.564382 0.519881
vn -0.352996 -0.634102 0.687974
vn 0.054364 -0.677522 0.733491
vn 0.144601 -0.283831 0.947909
vn -0.374301 -0.344983 0.860747
vn 0.065559 -0.737365 0.672306
vn 0.173805 -0.113738 0.978190
vn 0.436591 -0.563284 0.701497
vn 0.616863 0.124756 0.777120
vn 0.113688 0.002679 0.993513
vn -0.474362 -0.037291 0.879540
vn 0.334138 0.008668 0.942484
vn 0.686408 0.092893 0.721259
vn -0.107502 0.601339 0.791729
vn -0.535576 0.469190 0.702154
vn 0.248391 0.520473 0.816951
vn 0.665084 0.311900 0.678514
vn -0.414765 0.837844 0.354947
vn -0.779603 0.574582 0.249150
vn 0.296552 0.849452 0.436450
vn 0.845032 0.397299 0.357874
vn -0.457144 0.825480 -0.331062
vn -0.878671 0.446624 -0.168714
vn 0.250102 0.915018 -0.316531
vn 0.908475 0.407669 -0.092084
vn -0.255081 0.474749 -0.842346
vn -0.645386 0.425022 -0.634692
vn 0.162294 0.480408 -0.861898
vn 0.628860 0.381552 -0.677460
vn -0.095866 0.131504 -0.986669
vn -0.743444 -0.004489 -0.668784
vn 0.130670 0.173552 -0.976117
vn 0.649192 0.175857 -0.740016
vn -0.093338 -0.035291 -0.995009
vn -0.759759 -0.218449 -0.612411
vn 0.094959 0.022486 -0.995227
vn 0.655077 -0.022408 -0.755230
vn -0.094375 -0.798235 -0.594907
vn -0.530110 -0.718471 -0.450314
vn 0.045920 -0.787425 -0.614698
vn 0.525308 -0.649755 -0.549427
vn -0.064889 -0.996474 -0.053198
vn -0.593393 -0.801568 -0.073302
vn 0.021505 -0.998336 -0.053501
vn 0.589339 -0.803567 -0.083430
vn -0.056675 -0.997634 0.038919
vn -0.621117 -0.781078 0.064273
vn 0.045942 -0.998052 0.042219
vn 0.621766 -0.779199 0.079096
vn 0.993893 -0.062775 -0.090754
vn 0.991175 0.040882 0.126098
vn 0.990238 0.131401 -0.046501
vn 0.950792 0.138981 0.276909
vn -0.956298 -0.286822 -0.056800
vn -0.949191 -0.279906 0.143837
vn -0.996916 -0.067936 -0.039280
vn -0.980214 -0.049123 0.191746
s 1
g pCube1
usemtl blinn1SG
f 1/57/1 2/2/2 6/6/3 5/58/4
f 2/2/2 3/3/5 7/7/6 6/6/3
f 3/3/5 4/59/7 8/60/8 7/7/6
f 5/58/4 6/6/3 10/10/9 9/61/10
f 6/6/3 7/7/6 11/11/11 10/10/9
f 7/7/6 8/60/8 12/62/12 11/11/11
f 9/61/10 10/10/9 14/63/13 13/64/14
f 10/10/9 11/11/11 15/65/15 14/63/13
f 11/11/11 12/62/12 16/66/16 15/65/15
f 13/13/14 14/14/13 18/18/17 17/17/18
f 14/14/13 15/15/15 19/19/19 18/18/17
f 15/15/15 16/16/16 20/20/20 19/19/19
f 17/17/18 18/18/17 22/22/21 21/21/22
f 18/18/17 19/19/19 23/23/23 22/22/21
f 19/19/19 20/20/20 24/24/24 23/23/23
f 21/21/22 22/22/21 26/67/25 25/25/26
f 22/22/21 23/23/23 27/68/27 26/67/25
f 23/23/23 24/24/24 28/28/28 27/68/27
f 25/69/26 26/26/25 30/30/29 29/70/30
f 26/26/25 27/27/27 31/31/31 30/30/29
f 27/27/27 28/71/28 32/72/32 31/31/31
f 29/70/30 30/30/29 34/34/33 33/73/34
f 30/30/29 31/31/31 35/35/35 34/34/33
f 31/31/31 32/72/32 36/74/36 35/35/35
f 33/73/34 34/34/33 38/38/37 37/75/38
f 34/34/33 35/35/35 39/39/39 38/38/37
f 35/35/35 36/74/36 40/76/40 39/39/39
f 37/75/38 38/38/37 42/42/41 41/77/42
f 38/38/37 39/39/39 43/43/43 42/42/41
f 39/39/39 40/76/40 44/78/44 43/43/43
f 41/77/42 42/42/41 46/46/45 45/79/46
f 42/42/41 43/43/43 47/47/47 46/46/45
f 43/43/43 44/78/44 48/80/48 47/47/47
f 45/79/46 46/46/45 2/2/2 1/57/1
f 46/46/45 47/47/47 3/3/5 2/2/2
f 47/47/47 48/80/48 4/59/7 3/3/5
f 44/44/44 40/40/40 36/36/36 49/49/49
f 48/48/48 44/44/44 49/49/49 50/50/50
f 4/4/7 48/48/48 50/50/50 8/8/8
f 49/49/49 36/36/36 32/32/32 51/51/51
f 50/50/50 49/49/49 51/51/51 52/52/52
f 8/8/8 50/50/50 52/52/52 12/12/12
f 51/51/51 32/32/32 28/28/28 24/24/24
f 52/52/52 51/51/51 24/24/24 20/20/20
f 12/12/12 52/52/52 20/20/20 16/16/16
f 37/37/38 41/41/42 53/53/53 33/33/34
f 41/41/42 45/45/46 54/54/54 53/53/53
f 45/45/46 1/1/1 5/5/4 54/54/54
f 33/33/34 53/53/53 55/55/55 29/29/30
f 53/53/53 54/54/54 56/56/56 55/55/55
f 54/54/54 5/5/4 9/9/10 56/56/56
f 29/29/30 55/55/55 21/21/22 25/25/26
f 55/55/55 56/56/56 17/17/18 21/21/22
f 56/56/56 9/9/10 13/13/14 17/17/18
