# This file uses meters as units for non-parametric coordinates.

mtllib m_Tree.mtl
g default
v 128.706177 0.000000 -110.871681
v 66.325302 0.000000 -195.179413
v -24.540491 0.000000 -215.445465
v -116.680161 0.000000 -158.263947
v -166.369385 5.413513 -53.576988
v -119.234489 15.257446 35.650047
v -43.327950 6.232300 149.751740
v 20.100103 0.571228 185.516785
v 75.057968 0.000000 137.798080
v 129.160629 0.000000 23.087271
v 148.668442 263.444397 -84.019424
v 74.427338 244.971008 -167.590714
v -15.746970 236.436493 -186.954880
v -109.847527 244.668152 -110.123528
v -158.296661 260.541962 -5.849938
v -157.130325 269.354004 70.346535
v -96.730003 270.815186 112.285843
v 6.178561 280.800812 129.163071
v 121.592728 290.127502 96.654816
v 163.805145 281.844391 12.181009
v 77.975433 507.265350 -127.171692
v 2.419379 506.980377 -182.277206
v -95.219536 514.503784 -177.048111
v -170.276733 526.888855 -78.538452
v -195.690125 525.429016 21.831554
v -173.594971 514.155884 96.881943
v -95.597885 503.383820 141.846893
v 8.405420 503.312317 133.641632
v 87.865532 510.383667 65.475700
v 110.788055 510.059662 -37.527199
v 52.859138 805.666138 -96.117218
v -10.043806 803.919739 -131.023376
v -87.671555 803.904846 -120.856674
v -156.688248 806.807373 -68.674271
v -191.466919 810.858643 3.331858
v -177.113998 812.055908 65.116058
v -103.783005 812.038940 99.138420
v -1.299578 811.965576 90.589424
v 70.348740 811.011230 40.992619
v 85.394638 808.827209 -29.333191
v 69.287628 1173.566650 -78.176773
v -14.779713 1160.308594 -127.029572
v -95.433105 1143.565674 -127.049927
v -159.902359 1148.990967 -85.529892
v -184.697586 1149.619263 -3.929111
v -149.161575 1146.355225 77.410820
v -69.115746 1137.306396 139.478043
v 13.438339 1132.773193 145.180115
v 90.795898 1155.067139 114.453354
v 126.830551 1173.709717 26.941460
v -36.011593 1178.096802 10.331090
vt 0.805417 0.079832
vt 0.830372 0.080176
vt 0.852273 0.086472
vt 0.877297 0.101480
vt 0.903000 0.128429
vt 0.924582 0.157396
vt 0.954381 0.174965
vt 0.729661 0.091915
vt 0.745272 0.090124
vt 0.773825 0.083385
vt 0.799774 0.254183
vt 0.824762 0.243430
vt 0.846045 0.245740
vt 0.873603 0.270370
vt 0.898639 0.305355
vt 0.914641 0.330406
vt 0.930424 0.344635
vt 0.734133 0.290537
vt 0.759214 0.282960
vt 0.778945 0.270749
vt 0.808652 0.412701
vt 0.828600 0.414096
vt 0.848470 0.429034
vt 0.872627 0.460316
vt 0.892668 0.485337
vt 0.908165 0.498706
vt 0.925967 0.514070
vt 0.743364 0.449179
vt 0.765260 0.435277
vt 0.787984 0.420893
vt 0.806746 0.598091
vt 0.822310 0.591516
vt 0.839389 0.598858
vt 0.857356 0.618394
vt 0.871596 0.650200
vt 0.882329 0.678772
vt 0.894135 0.720505
vt 0.763366 0.674880
vt 0.778859 0.646630
vt 0.791690 0.617853
vt 0.815472 0.768414
vt 0.824155 0.750294
vt 0.832210 0.744142
vt 0.838163 0.762586
vt 0.843880 0.787907
vt 0.842070 0.828159
vt 0.830956 0.876721
vt 0.813466 0.910799
vt 0.806905 0.846198
vt 0.807667 0.805142
vt 0.824309 0.834689
vt 0.969868 0.180441
vt 0.952183 0.369512
vt 0.945491 0.540997
vt 0.908199 0.775416
vn 0.774023 0.025020 -0.632663
vn 0.774023 0.025020 -0.632663
vn 0.727673 0.062053 -0.683111
vn 0.721693 0.066563 -0.689005
vn 0.207865 0.105980 -0.972399
vn 0.207865 0.105980 -0.972399
vn 0.137204 0.055979 -0.988960
vn 0.138378 0.056807 -0.988749
vn -0.573441 0.146998 -0.805951
vn -0.573441 0.146998 -0.805951
vn -0.673865 -0.024284 -0.738455
vn -0.653287 0.015225 -0.756957
vn -0.895364 0.109501 -0.431663
vn -0.895364 0.109501 -0.431663
vn -0.927272 -0.035857 -0.372668
vn -0.919586 0.010916 -0.392738
vn -0.951681 -0.102586 0.289446
vn -0.951681 -0.102586 0.289446
vn -0.970652 -0.112228 0.212694
vn -0.965943 -0.109590 0.234404
vn -0.749955 -0.128542 0.648879
vn -0.749955 -0.128542 0.648879
vn -0.669289 -0.124549 0.732488
vn -0.665581 -0.124338 0.735896
vn -0.302311 0.125365 0.944930
vn -0.302311 0.125365 0.944929
vn -0.168862 0.023021 0.985371
vn -0.173816 0.026764 0.984414
vn 0.416937 0.129937 0.899600
vn 0.416938 0.129937 0.899600
vn 0.435047 0.107085 0.894018
vn 0.432699 0.110080 0.894793
vn 0.895404 -0.087353 0.436602
vn 0.895404 -0.087353 0.436602
vn 0.919973 0.048178 0.389009
vn 0.919517 0.044093 0.390570
vn 0.993432 -0.097746 -0.059482
vn 0.993432 -0.097746 -0.059482
vn 0.989622 0.017377 -0.142642
vn 0.987415 0.034024 -0.154450
vn 0.603321 0.127604 -0.787223
vn 0.613555 0.124130 -0.779835
vn -0.014111 0.109665 -0.993868
vn 0.007932 0.085705 -0.996289
vn -0.721950 -0.002243 -0.691942
vn -0.722935 -0.038428 -0.689847
vn -0.942166 -0.058069 -0.330076
vn -0.941888 -0.062720 -0.330019
vn -0.978244 -0.054165 0.200264
vn -0.976697 -0.040485 0.210770
vn -0.495739 -0.002521 0.868468
vn -0.488456 0.016878 0.872425
vn 0.030146 0.049087 0.998340
vn 0.030795 0.050258 0.998262
vn 0.542082 0.102252 0.834081
vn 0.534256 0.100821 0.839289
vn 0.955250 0.146832 0.256785
vn 0.953017 0.153722 0.261014
vn 0.931915 0.145801 -0.332078
vn 0.933454 0.150886 -0.325417
vn 0.515203 0.078801 -0.853438
vn 0.513994 0.075247 -0.854487
vn -0.071052 0.084691 -0.993871
vn -0.071280 0.087484 -0.993613
vn -0.650600 0.036976 -0.758520
vn -0.654776 0.041370 -0.754690
vn -0.938045 0.007658 -0.346429
vn -0.938187 0.008066 -0.346035
vn -0.953865 0.036045 0.298064
vn -0.953678 0.036231 0.298640
vn -0.498058 0.036023 0.866395
vn -0.496871 0.037843 0.866999
vn 0.047389 0.000758 0.998876
vn 0.048395 0.004955 0.998816
vn 0.557514 -0.032304 0.829539
vn 0.555140 -0.038306 0.830874
vn 0.966950 -0.028947 0.253317
vn 0.965066 -0.042737 0.258499
vn 0.902048 0.033700 -0.430319
vn 0.899795 0.024960 -0.435598
vn 0.493641 0.018362 -0.869472
vn 0.493641 0.018362 -0.869472
vn -0.063519 -0.004294 -0.997971
vn -0.063519 -0.004294 -0.997971
vn -0.575691 -0.036879 -0.816836
vn -0.575691 -0.036879 -0.816836
vn -0.932389 -0.007930 -0.361370
vn -0.932389 -0.007930 -0.361370
vn -0.943063 0.046187 0.329392
vn -0.943063 0.046187 0.329392
vn -0.531557 -0.017113 0.846850
vn -0.531557 -0.017113 0.846850
vn 0.011579 -0.146230 0.989183
vn 0.011579 -0.146230 0.989183
vn 0.486811 -0.189971 0.852599
vn 0.486811 -0.189971 0.852599
vn 0.946635 -0.136098 0.292165
vn 0.946635 -0.136098 0.292165
vn 0.885706 -0.022980 -0.463677
vn 0.885706 -0.022980 -0.463677
vn -0.014238 0.997584 -0.068001
vn -0.140935 0.978812 -0.148542
vn -0.075357 0.996100 0.045886
vn -0.122438 0.973767 -0.191800
vn -0.122967 0.982570 -0.139410
vn -0.189666 0.981699 0.017130
vn -0.154036 0.967980 0.198212
vn -0.034648 0.955511 0.292912
vn 0.030921 0.950808 0.308235
vn 0.004889 0.977629 0.210278
vn 0.015540 0.993796 0.110133
vn -0.124993 0.925714 0.356974
vn -0.124993 0.925714 0.356974
vn -0.124993 0.925714 0.356974
s 1
g pCylinder1
usemtl lambert2SG
f 1/1/1 2/2/2 12/12/3 11/11/4
s 2
f 2/2/5 3/3/6 13/13/7 12/12/8
s 3
f 3/3/9 4/4/10 14/14/11 13/13/12
s 4
f 4/4/13 5/5/14 15/15/15 14/14/16
s 5
f 5/5/17 6/6/18 16/16/19 15/15/20
s 6
f 6/6/21 7/7/22 17/17/23 16/16/24
s 7
f 7/7/25 8/52/26 18/53/27 17/17/28
s 8
f 8/8/29 9/9/30 19/19/31 18/18/32
s 9
f 9/9/33 10/10/34 20/20/35 19/19/36
s 10
f 10/10/37 1/1/38 11/11/39 20/20/40
s 1
f 11/11/4 12/12/3 22/22/41 21/21/42
s 2
f 12/12/8 13/13/7 23/23/43 22/22/44
s 3
f 13/13/12 14/14/11 24/24/45 23/23/46
s 4
f 14/14/16 15/15/15 25/25/47 24/24/48
s 5
f 15/15/20 16/16/19 26/26/49 25/25/50
s 6
f 16/16/24 17/17/23 27/27/51 26/26/52
s 7
f 17/17/28 18/53/27 28/54/53 27/27/54
s 8
f 18/18/32 19/19/31 29/29/55 28/28/56
s 9
f 19/19/36 20/20/35 30/30/57 29/29/58
s 10
f 20/20/40 11/11/39 21/21/59 30/30/60
s 1
f 21/21/42 22/22/41 32/32/61 31/31/62
s 2
f 22/22/44 23/23/43 33/33/63 32/32/64
s 3
f 23/23/46 24/24/45 34/34/65 33/33/66
s 4
f 24/24/48 25/25/47 35/35/67 34/34/68
s 5
f 25/25/50 26/26/49 36/36/69 35/35/70
s 6
f 26/26/52 27/27/51 37/37/71 36/36/72
s 7
f 27/27/54 28/54/53 38/55/73 37/37/74
s 8
f 28/28/56 29/29/55 39/39/75 38/38/76
s 9
f 29/29/58 30/30/57 40/40/77 39/39/78
s 10
f 30/30/60 21/21/59 31/31/79 40/40/80
s 1
f 31/31/62 32/32/61 42/42/81 41/41/82
s 2
f 32/32/64 33/33/63 43/43/83 42/42/84
s 3
f 33/33/66 34/34/65 44/44/85 43/43/86
s 4
f 34/34/68 35/35/67 45/45/87 44/44/88
s 5
f 35/35/70 36/36/69 46/46/89 45/45/90
s 6
f 36/36/72 37/37/71 47/47/91 46/46/92
s 7
f 37/37/74 38/55/73 48/48/93 47/47/94
s 8
f 38/38/76 39/39/75 49/49/95 48/48/96
s 9
f 39/39/78 40/40/77 50/50/97 49/49/98
s 10
f 40/40/80 31/31/79 41/41/99 50/50/100
s 11
f 41/41/101 42/42/102 51/51/103
f 42/42/102 43/43/104 51/51/103
f 43/43/104 44/44/105 51/51/103
f 44/44/105 45/45/106 51/51/103
f 45/45/106 46/46/107 51/51/103
f 46/46/107 47/47/108 51/51/103
f 47/47/108 48/48/109 51/51/103
f 49/49/110 50/50/111 51/51/103
f 50/50/111 41/41/101 51/51/103
s off
f 51/51/112 48/48/113 49/49/114
