# This file uses centimeters as units for non-parametric coordinates.

mtllib m_Tunnel.mtl
g default
v 16.264702 0.604545 18.078600
v -16.264698 0.604551 18.078600
v -15.026620 6.869746 18.078600
v -11.500874 12.181117 18.078600
v -6.224224 15.730062 18.078600
v 0.000008 16.976288 18.078600
v 6.224237 15.730060 18.078600
v 11.500884 12.181108 18.078602
v 15.026624 6.869730 18.078600
v 16.264702 0.604545 -18.078600
v -16.264698 0.604551 -18.078600
v -15.026620 6.869746 -18.078600
v -11.500874 12.181117 -18.078600
v -6.224224 15.730062 -18.078600
v 0.000008 16.976286 -18.078600
v 6.224237 15.730060 -18.078600
v 11.500884 12.181108 -18.078600
v 15.026624 6.869730 -18.078600
v 18.071892 0.604545 -18.078600
v -18.071892 0.604551 -18.078600
v -16.696249 7.565881 -18.078600
v -12.778751 13.467408 -18.078600
v -6.915805 17.410683 -18.078600
v 0.000009 18.795372 -18.078600
v 6.915822 17.410675 -18.078600
v 12.778764 13.467394 -18.078600
v 16.696255 7.565865 -18.078600
v 18.071892 0.604545 18.078600
v -18.071892 0.604552 18.078600
v -16.696249 7.565881 18.078602
v -12.778751 13.467408 18.078600
v -6.915805 17.410685 18.078600
v 0.000009 18.795374 18.078600
v 6.915822 17.410677 18.078600
v 12.778764 13.467394 18.078600
v 16.696255 7.565865 18.078600
v 16.264702 0.604545 -14.462878
v 15.026624 6.869730 -14.462878
v 11.500884 12.181108 -14.462878
v 6.224237 15.730060 -14.462878
v 0.000008 16.976286 -14.462878
v -6.224224 15.730062 -14.462878
v -11.500874 12.181117 -14.462878
v -15.026620 6.869746 -14.462878
v -16.264700 0.604551 -14.462878
v 18.071892 0.604545 -14.462879
v 16.696255 7.565865 -14.462880
v 12.778764 13.467394 -14.462879
v 6.915822 17.410673 -14.462879
v 0.000009 18.795372 -14.462879
v -6.915805 17.410683 -14.462880
v -12.778751 13.467408 -14.462880
v -16.696247 7.565881 -14.462879
v -18.071892 0.604551 -14.462880
v 18.071892 0.604545 14.824450
v 16.696255 7.565865 14.824450
v 12.778764 13.467394 14.824451
v 6.915822 17.410677 14.824451
v 0.000009 18.795372 14.824451
v -6.915805 17.410685 14.824450
v -12.778751 13.467408 14.824450
v -16.696249 7.565881 14.824450
v -18.071892 0.604551 14.824450
v 16.264702 0.604545 14.824450
v 15.026623 6.869730 14.824451
v 11.500884 12.181106 14.824450
v 6.224237 15.730059 14.824451
v 0.000008 16.976286 14.824450
v -6.224224 15.730061 14.824451
v -11.500874 12.181117 14.824451
v -15.026620 6.869746 14.824451
v -16.264698 0.604551 14.824450
v -17.138083 7.747788 14.824451
v -18.549740 0.698980 14.824451
v -18.549740 0.698980 18.078600
v -17.138083 7.747788 18.078600
v -13.117581 13.804191 14.824451
v -13.117581 13.804191 18.078600
v -7.099539 17.851580 14.824451
v -7.099539 17.851580 18.078600
v 0.000009 19.272984 14.824451
v 0.000009 19.272985 18.078600
v 7.099556 17.851572 14.824450
v 7.099556 17.851572 18.078600
v 13.117593 13.804176 14.824451
v 13.117593 13.804177 18.078600
v 17.138088 7.747772 14.824451
v 17.138088 7.747772 18.078600
v 18.549740 0.698973 14.824450
v 18.549740 0.698973 18.078602
v 17.138088 7.747771 -18.078600
v 18.549740 0.698973 -18.078600
v 17.138088 7.747771 -14.462879
v 18.549740 0.698973 -14.462880
v 13.117591 13.804174 -18.078600
v 13.117591 13.804174 -14.462879
v 7.099556 17.851570 -18.078600
v 7.099556 17.851568 -14.462880
v 0.000009 19.272984 -18.078602
v 0.000009 19.272984 -14.462879
v -7.099539 17.851578 -18.078600
v -7.099539 17.851578 -14.462879
v -13.117579 13.804189 -18.078600
v -13.117579 13.804190 -14.462879
v -17.138081 7.747788 -18.078600
v -17.138079 7.747788 -14.462879
v -18.549740 0.698980 -18.078600
v -18.549740 0.698980 -14.462879
vt 0.668475 0.649498
vt 0.594959 0.649498
vt 0.521443 0.649498
vt 0.447927 0.649498
vt 0.374411 0.649498
vt 0.300895 0.649498
vt 0.227379 0.649498
vt 0.153863 0.649498
vt 0.470192 0.290017
vt 0.110230 0.609983
vt 0.594959 0.984459
vt 0.521443 0.984459
vt 0.447927 0.984459
vt 0.374411 0.984459
vt 0.300895 0.984459
vt 0.227379 0.984459
vt 0.153863 0.984459
vt 0.745532 0.815681
vt 0.790430 0.150594
vt 0.790430 0.233730
vt 0.790430 0.316866
vt 0.790430 0.400002
vt 0.790430 0.483138
vt 0.790430 0.566273
vt 0.790430 0.649409
vt 0.790430 0.732545
vt 0.790430 0.815681
vt 0.906454 0.813251
vt 0.906454 0.730115
vt 0.906454 0.646979
vt 0.906454 0.563843
vt 0.906454 0.480707
vt 0.906454 0.397572
vt 0.906454 0.314436
vt 0.906454 0.231300
vt 0.906454 0.148164
vt 0.861556 0.813251
vt 0.861556 0.730115
vt 0.861556 0.646979
vt 0.861556 0.563843
vt 0.861556 0.480707
vt 0.861556 0.397572
vt 0.861556 0.314436
vt 0.861556 0.231300
vt 0.861556 0.148164
vt 0.470192 0.577987
vt 0.153863 0.950962
vt 0.227379 0.950962
vt 0.300895 0.950962
vt 0.374411 0.950962
vt 0.447927 0.950962
vt 0.521443 0.950962
vt 0.594959 0.950962
vt 0.110230 0.577987
vt 0.105322 0.022821
vt 0.794920 0.732545
vt 0.794920 0.649409
vt 0.794920 0.566273
vt 0.794920 0.483138
vt 0.794920 0.400002
vt 0.794920 0.316866
vt 0.794920 0.233730
vt 0.794920 0.150594
vt 0.910495 0.148164
vt 0.910495 0.231300
vt 0.910495 0.314436
vt 0.910495 0.397572
vt 0.910495 0.480708
vt 0.910495 0.563843
vt 0.910495 0.646979
vt 0.910495 0.730115
vt 0.628935 0.255343
vt 0.470192 0.318814
vt 0.153863 0.679644
vt 0.227379 0.679644
vt 0.300895 0.679644
vt 0.374411 0.679644
vt 0.447927 0.679644
vt 0.521443 0.679644
vt 0.594959 0.679644
vt 0.110230 0.318814
vt 0.910495 0.730115
vt 0.910495 0.813251
vt 0.906454 0.813251
vt 0.906454 0.730115
vt 0.910495 0.646979
vt 0.906454 0.646979
vt 0.910495 0.563843
vt 0.906454 0.563843
vt 0.910495 0.480708
vt 0.906454 0.480707
vt 0.910495 0.397572
vt 0.906454 0.397572
vt 0.910495 0.314436
vt 0.906454 0.314436
vt 0.910495 0.231300
vt 0.906454 0.231300
vt 0.910495 0.148164
vt 0.906454 0.148164
vt 0.790430 0.815681
vt 0.790430 0.732545
vt 0.794920 0.732545
vt 0.794920 0.815681
vt 0.790430 0.649409
vt 0.794920 0.649409
vt 0.790430 0.566273
vt 0.794920 0.566273
vt 0.790430 0.483138
vt 0.794920 0.483138
vt 0.790430 0.400002
vt 0.794920 0.400002
vt 0.790430 0.316866
vt 0.794920 0.316866
vt 0.790430 0.233730
vt 0.794920 0.233730
vt 0.790430 0.150594
vt 0.794920 0.150594
vt 0.080347 0.649498
vt 0.110230 0.290017
vt 0.470192 0.609983
vt 0.668475 0.984459
vt 0.668475 0.679644
vt 0.668475 0.950962
vt 0.080347 0.679644
vt 0.080347 0.950962
vt 0.745532 0.732545
vt 0.080347 0.984459
vt 0.745532 0.649409
vt 0.745532 0.566274
vt 0.745532 0.483138
vt 0.745532 0.400002
vt 0.745532 0.316866
vt 0.745532 0.233730
vt 0.745532 0.150594
vt 0.563484 0.022821
vt 0.628935 0.022821
vt 0.498032 0.022821
vt 0.432580 0.022821
vt 0.367129 0.022821
vt 0.301677 0.022821
vt 0.236225 0.022821
vt 0.170774 0.022821
vt 0.794920 0.815681
vt 0.563484 0.255343
vt 0.910495 0.813251
vt 0.498032 0.255343
vt 0.432580 0.255343
vt 0.367129 0.255343
vt 0.301677 0.255343
vt 0.236225 0.255343
vt 0.170774 0.255343
vt 0.105322 0.255343
vn 0.924762 -0.380545 0.000000
vn 0.981029 -0.193863 0.000000
vn 0.981029 -0.193863 0.000000
vn 0.924762 -0.380545 0.000000
vn 0.709422 -0.704784 0.000000
vn 0.709422 -0.704784 0.000000
vn 0.384830 -0.922988 -0.000000
vn 0.384830 -0.922988 0.000000
vn -0.000000 -1.000000 -0.000000
vn -0.000000 -1.000000 0.000000
vn -0.384831 -0.922987 -0.000000
vn -0.384831 -0.922987 0.000000
vn -0.709423 -0.704783 -0.000000
vn -0.709423 -0.704783 0.000000
vn -0.924763 -0.380545 -0.000000
vn -0.924763 -0.380545 0.000000
vn -0.981029 -0.193863 -0.000000
vn -0.981029 -0.193863 0.000000
vn -0.000000 0.000000 -1.000000
vn -0.000000 0.000000 -1.000000
vn -0.000000 0.000000 -1.000000
vn -0.000000 0.000000 -1.000000
vn -0.000000 0.000000 -1.000000
vn 0.000000 0.000000 -1.000000
vn -0.000000 0.000000 -1.000000
vn 0.000000 -0.000000 -1.000000
vn 0.000000 0.000000 -1.000000
vn 0.000000 -0.000001 -1.000000
vn 0.000000 0.000000 -1.000000
vn -0.000000 -0.000000 -1.000000
vn 0.000000 0.000000 -1.000000
vn 0.000000 0.000000 -1.000000
vn 0.000000 0.000000 -1.000000
vn -0.000000 0.000000 -1.000000
vn 0.000000 0.000000 -1.000000
vn -0.000001 0.000000 -1.000000
vn -0.923785 0.382912 0.000000
vn -0.980530 0.196370 0.000000
vn -0.980530 0.196370 0.000000
vn -0.923785 0.382912 0.000000
vn -0.709394 0.704813 0.000000
vn -0.709394 0.704813 0.000000
vn -0.384803 0.922999 0.000000
vn -0.384803 0.922999 0.000000
vn 0.000001 1.000000 0.000000
vn 0.000001 1.000000 0.000000
vn 0.384804 0.922998 -0.000000
vn 0.384804 0.922998 -0.000000
vn 0.709394 0.704812 -0.000000
vn 0.709394 0.704812 -0.000000
vn 0.923785 0.382912 0.000000
vn 0.923785 0.382912 0.000000
vn 0.980530 0.196369 0.000000
vn 0.980530 0.196369 0.000000
vn -0.000001 0.000000 1.000000
vn -0.000001 -0.000000 1.000000
vn 0.000000 -0.000000 1.000000
vn 0.000000 -0.000000 1.000000
vn -0.000000 0.000000 1.000000
vn 0.000000 -0.000000 1.000000
vn -0.000000 0.000000 1.000000
vn -0.000000 0.000000 1.000000
vn -0.000000 0.000000 1.000000
vn -0.000000 0.000000 1.000000
vn 0.000000 0.000000 1.000000
vn 0.000000 0.000000 1.000000
vn 0.000000 0.000000 1.000000
vn 0.000000 0.000000 1.000000
vn 0.000000 0.000000 1.000000
vn -0.000000 0.000000 1.000000
vn -0.000000 -0.000000 1.000000
vn -0.000001 0.000000 1.000000
vn -0.981029 -0.193863 -0.000000
vn -0.924762 -0.380545 -0.000000
vn -0.709423 -0.704783 -0.000000
vn -0.384831 -0.922987 0.000000
vn -0.000000 -1.000000 0.000000
vn 0.384830 -0.922988 0.000000
vn 0.709422 -0.704784 0.000000
vn 0.924762 -0.380545 -0.000000
vn 0.981029 -0.193863 -0.000000
vn 0.980530 0.196369 0.000000
vn 0.923785 0.382912 0.000000
vn 0.923785 0.382912 0.000000
vn 0.980530 0.196369 0.000000
vn 0.709394 0.704812 0.000000
vn 0.709394 0.704812 0.000000
vn 0.384804 0.922998 0.000000
vn 0.384804 0.922998 0.000000
vn 0.000001 1.000000 0.000000
vn 0.000001 1.000000 0.000000
vn -0.384803 0.922999 0.000000
vn -0.384803 0.922999 0.000000
vn -0.709394 0.704812 0.000000
vn -0.709394 0.704813 0.000000
vn -0.923785 0.382912 0.000000
vn -0.923785 0.382913 0.000000
vn -0.980530 0.196370 0.000000
vn -0.980530 0.196370 0.000000
vn 0.981029 0.193863 0.000000
vn 0.924763 0.380545 0.000000
vn 0.924763 0.380545 0.000000
vn 0.981029 0.193863 0.000000
vn 0.709423 0.704783 -0.000000
vn 0.709423 0.704783 -0.000000
vn 0.384831 0.922987 -0.000000
vn 0.384831 0.922987 -0.000000
vn 0.000001 1.000000 0.000000
vn 0.000001 1.000000 0.000000
vn -0.384830 0.922988 -0.000000
vn -0.384830 0.922988 -0.000000
vn -0.709422 0.704784 -0.000000
vn -0.709422 0.704784 -0.000000
vn -0.924762 0.380545 -0.000000
vn -0.924762 0.380545 -0.000000
vn -0.981029 0.193863 -0.000000
vn -0.981029 0.193863 -0.000000
vn -0.981029 -0.193863 0.000000
vn -0.924763 -0.380545 0.000000
vn -0.709423 -0.704783 0.000000
vn -0.384831 -0.922987 0.000000
vn -0.000000 -1.000000 0.000000
vn 0.384830 -0.922988 0.000000
vn 0.709422 -0.704784 0.000000
vn 0.924762 -0.380545 0.000000
vn 0.981029 -0.193863 0.000000
vn 0.000000 1.000000 0.000000
vn 0.000000 1.000000 0.000000
vn 0.000000 1.000000 0.000000
vn 0.000000 1.000000 0.000000
vn 0.000000 1.000000 -0.000000
vn 0.000000 1.000000 -0.000000
vn 0.000000 1.000000 -0.000000
vn 0.000000 1.000000 -0.000000
vn 0.000000 1.000000 0.000000
vn 0.000000 1.000000 0.000000
vn 0.000000 1.000000 0.000000
vn 0.000000 1.000000 0.000000
vn -0.000002 0.000001 -1.000000
vn -0.000004 0.000001 -1.000000
vn -0.000004 0.000001 -1.000000
vn -0.000002 0.000001 -1.000000
vn -0.193864 -0.981029 0.000000
vn -0.193864 -0.981029 0.000000
vn -0.193864 -0.981029 0.000000
vn -0.193864 -0.981029 0.000000
vn -0.000004 0.000001 1.000000
vn -0.000007 0.000000 1.000000
vn -0.000000 0.000001 -1.000000
vn -0.000000 0.000001 -1.000000
vn -0.000001 0.000001 1.000000
vn -0.000000 0.000001 -1.000000
vn -0.000000 0.000001 -1.000000
vn 0.000000 0.000000 1.000000
vn -0.000000 0.000000 -1.000000
vn -0.000000 0.000000 -1.000000
vn -0.000000 0.000000 1.000000
vn 0.000000 -0.000001 -1.000000
vn 0.000000 -0.000001 -1.000000
vn 0.000000 0.000000 1.000000
vn -0.000001 -0.000000 -1.000000
vn -0.000001 -0.000000 -1.000000
vn 0.000001 0.000000 1.000000
vn 0.000002 0.000001 -1.000000
vn 0.000002 0.000001 -1.000000
vn 0.000000 -0.000000 1.000000
vn 0.000005 0.000001 -1.000000
vn 0.000005 0.000001 -1.000000
vn 0.000000 -0.000000 1.000000
vn 0.193863 -0.981029 -0.000000
vn 0.193863 -0.981029 -0.000000
vn 0.193863 -0.981029 -0.000000
vn 0.193863 -0.981029 -0.000000
vn -0.000001 0.000000 -1.000000
vn -0.000003 0.000000 -1.000000
vn -0.000000 -0.000000 1.000000
vn -0.000001 0.000000 1.000000
vn -0.000001 0.000000 1.000000
vn -0.000000 -0.000000 1.000000
vn 0.193862 -0.981029 0.000000
vn 0.193862 -0.981029 0.000000
vn 0.193862 -0.981029 0.000000
vn 0.193862 -0.981029 0.000000
vn -0.000000 0.000000 -1.000000
vn 0.000001 0.000000 1.000000
vn 0.000001 0.000000 1.000000
vn -0.000001 -0.000001 -1.000000
vn 0.000000 0.000001 1.000000
vn 0.000000 0.000001 1.000000
vn -0.000000 -0.000002 -1.000000
vn 0.000000 -0.000000 1.000000
vn 0.000000 -0.000000 1.000000
vn 0.000001 -0.000001 -1.000000
vn 0.000001 -0.000001 1.000000
vn 0.000001 -0.000001 1.000000
vn 0.000001 0.000000 -1.000000
vn 0.000000 -0.000001 1.000000
vn 0.000000 -0.000001 1.000000
vn 0.000000 0.000000 -1.000000
vn 0.000000 -0.000000 1.000000
vn 0.000000 -0.000000 1.000000
vn 0.000000 0.000000 -1.000000
vn -0.193863 -0.981029 0.000000
vn -0.193863 -0.981029 0.000000
vn -0.193863 -0.981029 0.000000
vn -0.193863 -0.981029 0.000000
vn 0.000002 -0.000000 1.000000
vn 0.000002 -0.000000 1.000000
s 1
g pPipe1
usemtl lambert2SG
f 44/53/1 45/123/2 11/121/3 12/11/4
f 43/52/5 44/53/1 12/11/4 13/12/6
f 42/51/7 43/52/5 13/12/6 14/13/8
f 41/50/9 42/51/7 14/13/8 15/14/10
f 40/49/11 41/50/9 15/14/10 16/15/12
f 39/48/13 40/49/11 16/15/12 17/16/14
f 38/47/15 39/48/13 17/16/14 18/17/16
f 37/125/17 38/47/15 18/17/16 10/127/18
s 2
f 12/133/19 11/134/20 20/19/21 21/20/22
f 13/132/23 12/133/19 21/20/22 22/21/24
f 14/131/25 13/132/23 22/21/24 23/22/26
f 15/130/27 14/131/25 23/22/26 24/23/28
f 16/129/29 15/130/27 24/23/28 25/24/30
f 17/128/31 16/129/29 25/24/30 26/25/32
f 18/126/33 17/128/31 26/25/32 27/26/34
f 10/18/35 18/126/33 27/26/34 19/27/36
s 3
f 73/82/37 74/83/38 75/84/39 76/85/40
f 77/86/41 73/82/37 76/85/40 78/87/42
f 79/88/43 77/86/41 78/87/42 80/89/44
f 81/90/45 79/88/43 80/89/44 82/91/46
f 83/92/47 81/90/45 82/91/46 84/93/48
f 85/94/49 83/92/47 84/93/48 86/95/50
f 87/96/51 85/94/49 86/95/50 88/97/52
f 89/98/53 87/96/51 88/97/52 90/99/54
s 4
f 30/29/55 29/28/56 2/37/57 3/38/58
f 31/30/59 30/29/55 3/38/58 4/39/60
f 32/31/61 31/30/59 4/39/60 5/40/62
f 33/32/63 32/31/61 5/40/62 6/41/64
f 34/33/65 33/32/63 6/41/64 7/42/66
f 35/34/67 34/33/65 7/42/66 8/43/68
f 36/35/69 35/34/67 8/43/68 9/44/70
f 28/36/71 36/35/69 9/44/70 1/45/72
s 1
f 64/124/73 65/74/74 38/47/15 37/125/17
f 65/74/74 66/75/75 39/48/13 38/47/15
f 66/75/75 67/76/76 40/49/11 39/48/13
f 67/76/76 68/77/77 41/50/9 40/49/11
f 68/77/77 69/78/78 42/51/7 41/50/9
f 69/78/78 70/79/79 43/52/5 42/51/7
f 70/79/79 71/80/80 44/53/1 43/52/5
f 71/80/80 72/122/81 45/123/2 44/53/1
s 5
f 92/100/82 91/101/83 93/102/84 94/103/85
f 91/101/83 95/104/86 96/105/87 93/102/84
f 95/104/86 97/106/88 98/107/89 96/105/87
f 97/106/88 99/108/90 100/109/91 98/107/89
f 99/108/90 101/110/92 102/111/93 100/109/91
f 101/110/92 103/112/94 104/113/95 102/111/93
f 103/112/94 105/114/96 106/115/97 104/113/95
f 105/114/96 107/116/98 108/117/99 106/115/97
s 6
f 46/55/100 47/142/101 56/151/102 55/152/103
f 47/142/101 48/141/104 57/150/105 56/151/102
f 48/141/104 49/140/106 58/149/107 57/150/105
f 49/140/106 50/139/108 59/148/109 58/149/107
f 50/139/108 51/138/110 60/147/111 59/148/109
f 51/138/110 52/137/112 61/146/113 60/147/111
f 52/137/112 53/135/114 62/144/115 61/146/113
f 53/135/114 54/136/116 63/72/117 62/144/115
s 1
f 1/118/118 9/8/119 65/74/74 64/124/73
f 9/8/119 8/7/120 66/75/75 65/74/74
f 8/7/120 7/6/121 67/76/76 66/75/75
f 7/6/121 6/5/122 68/77/77 67/76/76
f 6/5/122 5/4/123 69/78/78 68/77/77
f 5/4/123 4/3/124 70/79/79 69/78/78
f 4/3/124 3/2/125 71/80/80 70/79/79
f 3/2/125 2/1/126 72/122/81 71/80/80
s off
f 1/9/127 64/73/128 72/81/129 2/119/130
f 64/73/131 37/46/132 45/54/133 72/81/134
f 37/46/135 10/120/136 11/10/137 45/54/138
s 7
f 62/71/139 63/145/140 74/83/141 73/82/142
s off
f 63/145/143 29/28/144 75/84/145 74/83/146
s 4
f 29/28/56 30/29/55 76/85/147 75/84/148
s 7
f 61/70/149 62/71/139 73/82/142 77/86/150
s 4
f 30/29/55 31/30/59 78/87/151 76/85/147
s 7
f 60/69/152 61/70/149 77/86/150 79/88/153
s 4
f 31/30/59 32/31/61 80/89/154 78/87/151
s 7
f 59/68/155 60/69/152 79/88/153 81/90/156
s 4
f 32/31/61 33/32/63 82/91/157 80/89/154
s 7
f 58/67/158 59/68/155 81/90/156 83/92/159
s 4
f 33/32/63 34/33/65 84/93/160 82/91/157
s 7
f 57/66/161 58/67/158 83/92/159 85/94/162
s 4
f 34/33/65 35/34/67 86/95/163 84/93/160
s 7
f 56/65/164 57/66/161 85/94/162 87/96/165
s 4
f 35/34/67 36/35/69 88/97/166 86/95/163
s 7
f 55/64/167 56/65/164 87/96/165 89/98/168
s 4
f 36/35/69 28/36/71 90/99/169 88/97/166
s off
f 28/36/170 55/64/171 89/98/172 90/99/173
s 2
f 19/27/36 27/26/34 91/101/174 92/100/175
s 8
f 47/56/176 46/143/177 94/103/178 93/102/179
s off
f 46/143/180 19/27/181 92/100/182 94/103/183
s 2
f 27/26/34 26/25/32 95/104/184 91/101/174
s 8
f 48/57/185 47/56/176 93/102/179 96/105/186
s 2
f 26/25/32 25/24/30 97/106/187 95/104/184
s 8
f 49/58/188 48/57/185 96/105/186 98/107/189
s 2
f 25/24/30 24/23/28 99/108/190 97/106/187
s 8
f 50/59/191 49/58/188 98/107/189 100/109/192
s 2
f 24/23/28 23/22/26 101/110/193 99/108/190
s 8
f 51/60/194 50/59/191 100/109/192 102/111/195
s 2
f 23/22/26 22/21/24 103/112/196 101/110/193
s 8
f 52/61/197 51/60/194 102/111/195 104/113/198
s 2
f 22/21/24 21/20/22 105/114/199 103/112/196
s 8
f 53/62/200 52/61/197 104/113/198 106/115/201
s 2
f 21/20/22 20/19/21 107/116/202 105/114/199
s off
f 20/19/203 54/63/204 108/117/205 107/116/206
s 8
f 54/63/207 53/62/200 106/115/201 108/117/208
